# xmcd CD database file
#
# Track frame offsets:
#	150
#	7922
#	22950
#	40100
#	57442
#	70572
#	92442
#	108442
#	123307
#	135955
#	148840
#	164702
#	177805
#	192922
#	204452
#	217280
#	237207
#	252100
#	268010
#	281955
#
# Disc length: 3969 seconds
#
# Revision: 3
# Processed by: cddbd v1.5.2PL0 Copyright (c) Steve Scherf et al.
# Submitted via: CDex 1.70beta2
#
DISCID=200f7f14
DTITLE=Willie Nelson - Revolutions Of Time: Exodus 3
DYEAR=1995
DGENRE=Country
TTITLE0=Nobody Slides, My Friend
TTITLE1=Little Old Fashioned Karma
TTITLE2=Harbor Lights
TTITLE3=Without A Song
TTITLE4=Good Time Charlie's Got The Blues
TTITLE5=City Of New Orleans
TTITLE6=Who'll Buy My Memories
TTITLE7=Write Your Own Songs
TTITLE8=Forgiving You Was Easy
TTITLE9=Me And Paul
TTITLE10=When I Dream
TTITLE11=My Own Peculiar Way
TTITLE12=Living In The Promiseland
TTITLE13=There Is No Easy Way (But There Is A Way)
TTITLE14=Ole Buttermilk Sky
TTITLE15=A Horse Called Music
TTITLE16=Nothing I Can Do About It Now
TTITLE17=Is The Better Part Over
TTITLE18=Ain't Necessarily So
TTITLE19=Still Is Still Moving To Me
EXTD=YEAR: 1995
EXTT0=
EXTT1=
EXTT2=
EXTT3=
EXTT4=
EXTT5=
EXTT6=
EXTT7=
EXTT8=
EXTT9=
EXTT10=
EXTT11=
EXTT12=
EXTT13=
EXTT14=
EXTT15=
EXTT16=
EXTT17=
EXTT18=
EXTT19=
PLAYORDER=
